<svg width="93" height="75" viewBox="0 0 93 75" fill="none" xmlns="http://www.w3.org/2000/svg">
<path d="M36.7123 58.14C36.5712 58.0248 36.4429 57.8936 36.3309 57.75C35.8201 57.4803 34.3886 56.3096 34.6024 51.7251C34.862 46.1622 29.741 39.1945 28.3467 36.1033C27.1327 33.4121 23.403 23.6887 31.6494 14.6983C31.6494 14.6983 38.2274 6.77299 51.4262 9.73343C65.3413 12.8544 65.6148 28.7735 63.4826 34.48C61.257 40.4365 55.3074 46.8725 55.4689 51.615C55.5849 55.0203 54.0715 57.3732 53.3432 57.8813L53.3425 57.8806C53.1762 58.0662 52.9883 58.2335 52.7846 58.3783C52.5469 58.5473 52.2886 58.6873 52.0152 58.7902L52.0165 58.7958C44.594 60.6132 37.4297 58.5542 37.4297 58.5542L37.429 58.5556C37.1694 58.4588 36.9263 58.3175 36.7123 58.14Z" fill="#FBC233"/>
<path d="M52.3982 60.1492C52.3658 60.1671 52.3334 60.1842 52.2996 60.2007C48.273 62.1677 44.4448 62.8523 38.9561 62.6617C38.6347 62.651 38.2943 62.5849 38.0064 62.4417C37.7883 62.3327 37.6013 62.18 37.4752 61.9727C37.1242 61.3936 37.4442 60.6643 37.5878 60.0026C37.7606 59.2035 37.6504 58.3465 37.2806 57.617L37.2203 57.6276C37.1696 57.3567 37.1885 57.0732 37.2736 56.8113C37.4876 56.9887 37.7307 57.1301 37.9903 57.2269L37.991 57.2255C37.991 57.2255 45.1553 59.2844 52.5778 57.4671L52.5764 57.4615C52.8499 57.3586 53.1082 57.2185 53.3458 57.0496C53.4117 57.3402 53.4768 57.6308 53.542 57.9214L53.4697 57.9374C53.6609 58.8183 53.1958 59.7089 52.3982 60.1492Z" fill="#DADADA"/>
<path d="M53.0933 66.1523C53.4561 66.6589 53.1203 67.5004 52.5044 67.6127C52.844 67.7682 52.9248 68.249 52.7557 68.5821C52.5872 68.9152 52.3627 69.2547 52.0264 69.4171C51.3143 70.5758 50.2699 71.2625 49.0784 71.6614C47.1091 72.3218 44.7376 72.1951 42.8076 72.1124C42.4555 72.0972 42.1185 72.0332 41.7981 71.9309C39.575 71.2243 38.1332 68.7035 37.8401 68.1522L37.8443 68.1495C37.7409 67.9039 37.7303 67.6208 37.8091 67.3665L37.8614 67.381C42.9366 67.9813 48.3695 68.1505 52.8448 65.6923C52.9746 65.813 53.0648 65.9774 53.0933 66.1523Z" fill="#DADADA"/>
<path d="M37.8219 67.329L37.7905 67.3182C37.4079 66.8918 37.0003 66.3052 37.2657 65.797C37.4262 65.491 37.799 65.3178 37.8988 64.9869C38.0167 64.5974 37.7057 64.2262 37.4835 63.8845C37.3213 63.6363 37.2302 63.2714 37.3362 63.0264L37.3557 63.0343C37.5885 62.8549 37.8068 62.6564 38.0064 62.4417C38.2942 62.5849 38.6347 62.651 38.956 62.6617C44.4447 62.8524 48.2729 62.1677 52.2996 60.2007C52.3334 60.1842 52.3657 60.1671 52.3981 60.1492C52.5074 60.2914 52.6343 60.4205 52.7747 60.5315L52.7712 60.5364C53.4241 61.0261 53.5225 62.0975 52.9691 62.6967C52.8559 62.8193 52.7176 62.9276 52.6517 63.0807C52.4963 63.4426 52.7995 63.8179 52.9663 64.1738C53.2463 64.7745 53.2205 65.2005 52.771 65.6323C52.7967 65.6507 52.8218 65.6705 52.8447 65.6923C48.3693 68.1505 42.9364 67.9814 37.8613 67.3811L37.8089 67.3666C37.8125 67.354 37.8168 67.3415 37.8219 67.329Z" fill="#DADADA"/>
<path d="M49.0776 71.6618L49.111 71.7606C46.1905 74.7213 44.6493 73.8821 44.6493 73.8821C44.1374 73.3623 41.7749 71.9996 41.7749 71.9996L41.7973 71.9313C42.1178 72.0336 42.4547 72.0976 42.8068 72.1128C44.7368 72.1955 47.1083 72.3222 49.0776 71.6618Z" fill="#DADADA"/>
<path d="M39.9619 55.7237C39.9373 55.7235 39.9129 55.7205 39.8884 55.7146C39.7899 55.6899 37.4765 55.0502 37.7449 49.2959C37.9359 45.2031 35.1501 40.3337 33.1159 36.778C32.4463 35.6082 31.8684 34.598 31.5166 33.8176C29.8726 30.1734 26.9088 20.7605 34.8694 12.0763C34.9934 11.9286 36.6498 10.0012 39.9067 8.40835C41.8501 7.45771 43.962 6.82729 46.1834 6.53332C48.9552 6.16702 51.9056 6.32787 54.9525 7.0116C57.5004 7.58297 59.74 8.61466 61.6086 10.0781C63.2769 11.3839 64.6631 13.0426 65.7299 15.0078C67.5813 18.4178 68.1001 22.0443 68.2092 24.4853C68.3362 27.3283 67.972 30.2029 67.2346 32.1754C66.327 34.6039 64.8122 37.1036 63.3472 39.5219C61.1878 43.0859 59.1472 46.4525 59.2409 49.1903C59.364 52.8124 57.7404 55.195 56.9811 55.7251C56.8387 55.825 56.6422 55.7903 56.542 55.6475C56.4425 55.5054 56.4766 55.3094 56.6197 55.2094C56.9461 54.9813 57.4653 54.3022 57.8894 53.2979C58.2527 52.437 58.673 51.0289 58.6111 49.2109C58.5115 46.2864 60.5984 42.842 62.8083 39.1961C64.2583 36.8027 65.7582 34.3288 66.6443 31.9553C67.3535 30.058 67.7029 27.2754 67.5793 24.5129C67.4731 22.1375 66.9702 18.6118 65.1759 15.3072C62.9783 11.2595 59.4922 8.67449 54.8143 7.62517C51.8484 6.95968 48.98 6.80101 46.2888 7.1541C44.1382 7.43617 42.0945 8.04278 40.2138 8.95908C37.0076 10.5203 35.3657 12.4646 35.3495 12.484C35.3459 12.4882 35.3431 12.4916 35.3395 12.4958C27.6259 20.9057 30.4986 30.0285 32.0919 33.5597C32.4314 34.3126 33.0024 35.311 33.6637 36.4667C35.7358 40.0891 38.5746 45.0506 38.3749 49.3257C38.1339 54.4863 40.0217 55.0996 40.0406 55.1047C40.2097 55.1468 40.3124 55.3169 40.2702 55.4856C40.2345 55.6292 40.104 55.7251 39.9619 55.7237Z" fill="#49413E"/>
<path d="M39.9619 55.7237C39.9373 55.7235 39.9129 55.7205 39.8884 55.7146C39.7899 55.6899 37.4765 55.0502 37.7449 49.2959C37.9359 45.2031 35.1501 40.3337 33.1159 36.778C32.4463 35.6082 31.8684 34.598 31.5166 33.8176C29.8726 30.1734 26.9088 20.7605 34.8694 12.0763C34.9934 11.9286 36.6498 10.0012 39.9067 8.40835C41.8501 7.45771 43.962 6.82729 46.1834 6.53332C48.9552 6.16702 51.9056 6.32787 54.9525 7.0116C57.5004 7.58297 59.74 8.61466 61.6086 10.0781C63.2769 11.3839 64.6632 13.0426 65.7299 15.0078C67.5813 18.4178 68.1001 22.0443 68.2092 24.4853C68.3362 27.3283 67.972 30.2029 67.2346 32.1754C66.327 34.6039 64.8122 37.1036 63.3472 39.5219C61.1878 43.0859 59.1472 46.4525 59.2409 49.1903C59.364 52.8124 57.7404 55.195 56.9811 55.7251C56.8387 55.825 56.6422 55.7903 56.542 55.6475C56.4425 55.5054 56.4766 55.3094 56.6197 55.2094C56.9461 54.9813 57.4653 54.3022 57.8894 53.2979C58.2527 52.437 58.673 51.0289 58.6111 49.2109C58.5115 46.2864 60.5984 42.842 62.8083 39.1961C64.2583 36.8027 65.7582 34.3288 66.6443 31.9553C67.3535 30.058 67.7029 27.2754 67.5793 24.5129C67.4731 22.1375 66.9702 18.6118 65.1759 15.3072C62.9783 11.2595 59.4922 8.67449 54.8143 7.62517C51.8484 6.95968 48.98 6.80101 46.2888 7.1541C44.1382 7.43617 42.0945 8.04278 40.2138 8.95908C37.0076 10.5203 35.3657 12.4646 35.3495 12.484C35.3459 12.4882 35.3431 12.4916 35.3395 12.4958C27.6259 20.9057 30.4986 30.0285 32.0919 33.5597C32.4314 34.3126 33.0024 35.311 33.6637 36.4667C35.7358 40.0891 38.5746 45.0506 38.3749 49.3257C38.1339 54.4863 40.0217 55.0996 40.0406 55.1047C40.2097 55.1468 40.3124 55.3169 40.2702 55.4856C40.2345 55.6292 40.104 55.7251 39.9619 55.7237Z" stroke="#49413E" stroke-width="2"/>
<path d="M49.8329 57.491C48.6824 57.48 47.6368 57.41 46.7482 57.3198C43.9531 57.036 42.1163 56.5141 42.0394 56.4917C41.8725 56.444 41.7754 56.2691 41.8239 56.1025C41.8717 55.936 42.0463 55.8391 42.214 55.8875C42.2873 55.9085 49.64 57.9713 57.023 56.0285C57.1915 55.984 57.3636 56.0842 57.4082 56.2523C57.4528 56.4204 57.3524 56.5921 57.1839 56.6366C54.5933 57.3176 52.0226 57.5119 49.8329 57.491Z" fill="#49413E"/>
<path d="M43.0943 61.9178C42.686 61.9139 42.2687 61.9044 41.8417 61.8898C41.0429 61.862 40.4092 61.5555 40.1024 61.0488C39.7528 60.4718 39.9257 59.818 40.079 59.2409C40.1153 59.1043 40.1494 58.9754 40.1765 58.8491C40.3333 58.1261 40.2309 57.3327 39.8961 56.672C39.8178 56.5168 39.8798 56.3281 40.0353 56.2492C40.1908 56.171 40.38 56.2329 40.4591 56.3881C40.864 57.1864 40.9827 58.1078 40.793 58.9815C40.7629 59.1216 40.7251 59.2638 40.6888 59.4011C40.5566 59.9016 40.4309 60.3741 40.6426 60.7227C40.8343 61.0397 41.2911 61.2403 41.8645 61.2605C47.3168 61.45 51.1388 60.7458 55.0586 58.8308C55.8557 58.4415 56.2638 57.5881 56.0296 56.8012C55.9801 56.6344 56.0749 56.4599 56.242 56.4105C56.4085 56.3611 56.5841 56.4557 56.6336 56.6225C56.956 57.7044 56.4098 58.871 55.3354 59.396C51.6232 61.2102 48.0059 61.9646 43.0943 61.9178Z" fill="#49413E"/>
<path d="M46.1681 62.9695C44.3587 62.9522 42.566 62.7905 40.8612 62.5891C40.6884 62.5686 40.5645 62.4123 40.5851 62.2399C40.6056 62.0675 40.7623 61.9439 40.9351 61.9645C45.7458 62.5336 51.2704 62.7805 55.767 60.2925C55.9191 60.208 56.1112 60.2629 56.1952 60.4146C56.2799 60.5664 56.2248 60.758 56.0727 60.8418C53.0355 62.5234 49.5728 63.0019 46.1681 62.9695Z" fill="#49413E"/>
<path d="M46.1408 65.8547C44.3313 65.8375 42.5386 65.6758 40.8339 65.4744C40.6611 65.4539 40.5372 65.2976 40.5577 65.1252C40.5783 64.9528 40.7349 64.8292 40.9077 64.8497C45.7184 65.4189 51.243 65.6657 55.7397 63.1777C55.8918 63.0932 56.0838 63.1482 56.1678 63.2999C56.2525 63.4516 56.1975 63.6432 56.0454 63.727C53.0082 65.4086 49.5454 65.8871 46.1408 65.8547Z" fill="#49413E"/>
<path d="M46.027 66.987C44.2175 66.9698 42.4249 66.8081 40.7201 66.6067C40.5473 66.5862 40.4234 66.4299 40.444 66.2575C40.4645 66.0851 40.6212 65.9615 40.794 65.982C45.6054 66.5512 51.1293 66.798 55.6259 64.31C55.778 64.2255 55.9701 64.2805 56.054 64.4322C56.1387 64.5839 56.0837 64.7756 55.9316 64.8594C52.8937 66.5416 49.4317 67.0195 46.027 66.987Z" fill="#49413E"/>
<path d="M40.6849 66.5465C40.5995 66.5457 40.5143 66.5107 40.4527 66.4416C40.2101 66.1717 39.4728 65.3499 39.883 64.565C39.9778 64.3835 40.1178 64.2479 40.2408 64.1289C40.3595 64.014 40.462 63.9151 40.4938 63.8092C40.5524 63.6155 40.3798 63.3602 40.2126 63.114C40.1795 63.0655 40.147 63.017 40.116 62.9692C39.9517 62.7168 39.7996 62.2884 39.9096 61.9107C39.9726 61.6947 40.1107 61.5325 40.3091 61.4422C40.4673 61.3703 40.6544 61.4399 40.7264 61.5978C40.7984 61.7557 40.7294 61.9423 40.5705 62.0141C40.5501 62.0237 40.5282 62.0368 40.5138 62.0863C40.4754 62.2187 40.5319 62.4561 40.6438 62.6269C40.6728 62.6712 40.7031 62.7162 40.7342 62.7619C40.9607 63.096 41.2425 63.5109 41.0972 63.9917C41.0184 64.253 40.8381 64.4273 40.6798 64.5802C40.5822 64.675 40.4897 64.7643 40.4419 64.8561C40.3035 65.1203 40.465 65.5124 40.9224 66.0219C41.0388 66.1516 41.0278 66.35 40.8978 66.4661C40.8371 66.5207 40.7605 66.5472 40.6849 66.5465Z" fill="#49413E"/>
<path d="M55.5741 64.9419C55.4866 64.9411 55.4001 64.9039 55.3384 64.8328C55.2248 64.701 55.2393 64.5027 55.3714 64.3894C55.7767 64.0404 55.8263 63.7565 55.5765 63.221C55.5442 63.1515 55.5043 63.0791 55.4623 63.0019C55.2903 62.6865 55.0769 62.2939 55.2581 61.8715C55.3311 61.701 55.4499 61.5826 55.5539 61.4788C55.5807 61.4518 55.6076 61.4255 55.6331 61.3978C55.8369 61.1776 55.9352 60.8571 55.9048 60.5179C55.8737 60.1794 55.7182 59.8817 55.4783 59.7019C55.3393 59.5979 55.311 59.4006 55.4153 59.2618C55.5196 59.123 55.7173 59.0949 55.8564 59.1989C56.2389 59.4855 56.4852 59.9449 56.5321 60.4603C56.579 60.9757 56.4202 61.4724 56.0968 61.8236C56.0657 61.8575 56.0325 61.89 55.9999 61.9233C55.9299 61.9932 55.8635 62.0596 55.8377 62.1188C55.7811 62.251 55.8718 62.4349 56.0163 62.7011C56.0611 62.7833 56.1072 62.8683 56.1477 62.9553C56.5156 63.7428 56.4028 64.3321 55.7828 64.8657C55.7228 64.9175 55.6483 64.9426 55.5741 64.9419Z" fill="#49413E"/>
<path d="M47.7289 71.407C47.0853 71.4009 46.4602 71.374 45.8749 71.3488L45.6901 71.3408C44.3349 71.2825 42.987 70.5248 41.7927 69.1495C40.9074 68.13 40.4182 67.1394 40.3976 67.0973C40.3213 66.9414 40.3862 66.7527 40.5424 66.6766C40.6986 66.6005 40.887 66.6652 40.964 66.8211C40.9688 66.8309 41.4436 67.7899 42.2783 68.7481C43.0286 69.6091 44.2338 70.6491 45.7171 70.7122L45.9019 70.7202C47.4476 70.7866 49.2005 70.8627 50.8065 70.5538C52.6237 70.2043 53.8819 69.4239 54.6544 68.1672C54.6857 68.1158 54.7316 68.075 54.7858 68.0483C54.9968 67.9462 55.1831 67.7258 55.3715 67.3537C55.4294 67.2397 55.4392 67.0882 55.3969 66.9676C55.3785 66.915 55.3414 66.8448 55.2703 66.8127C55.1454 66.7556 55.0718 66.6242 55.0885 66.4881C55.1052 66.352 55.2091 66.2426 55.3446 66.2173C55.5263 66.1841 55.6902 66.032 55.7734 65.8211C55.856 65.6094 55.8392 65.3871 55.7285 65.24C55.6241 65.1013 55.6526 64.9039 55.7916 64.7997C55.9312 64.6955 56.1284 64.7239 56.2329 64.8626C56.477 65.1877 56.5246 65.6312 56.3609 66.0502C56.2676 66.2876 56.1187 66.4853 55.9338 66.6254C55.9565 66.6683 55.9764 66.7132 55.9928 66.7601C56.0916 67.0427 56.0703 67.3709 55.9347 67.6379C55.7855 67.9327 55.5442 68.3399 55.1464 68.5688C53.5503 71.0767 50.4788 71.4332 47.7289 71.407Z" fill="#49413E"/>
<path d="M45.7637 68.4728C44.4823 68.4606 43.2017 68.3471 41.9342 68.0527C41.7644 68.0134 41.6595 67.8447 41.6982 67.6753C41.7377 67.5059 41.9068 67.4006 42.0766 67.4399C44.9045 68.0964 47.8562 67.8178 50.7105 67.5487C52.3101 67.3976 53.7168 67.2021 54.7279 66.3334C54.86 66.2201 55.0587 66.2352 55.1723 66.3663C55.2859 66.498 55.2707 66.6963 55.1387 66.8097C53.9863 67.7993 52.4779 68.0134 50.769 68.1746C49.1224 68.3301 47.443 68.4888 45.7637 68.4728Z" fill="#49413E"/>
<path d="M48.1129 73.2158C47.6654 73.2115 47.4215 73.0862 47.395 73.072C47.3679 73.057 47.3428 73.0386 47.3213 73.0161C46.9267 72.6147 45.1614 71.5589 44.5144 71.1859C44.3639 71.0992 44.3118 70.9066 44.3994 70.7565C44.4863 70.6064 44.6793 70.5544 44.8298 70.6418C45.0687 70.7796 47.1289 71.9738 47.7251 72.5315C47.9338 72.6048 49.3193 72.9526 51.7837 70.4544C51.906 70.3305 52.1049 70.3289 52.2291 70.4509C52.3533 70.573 52.3549 70.7722 52.2326 70.8954C50.2929 72.8613 48.893 73.2232 48.1129 73.2158Z" fill="#49413E"/>
<path d="M55.6624 55.7705C55.6295 55.7702 55.596 55.7643 55.5631 55.7535C49.2389 53.5831 41.1576 55.6003 41.0768 55.6212C40.9083 55.6643 40.7363 55.5627 40.6931 55.3946C40.6499 55.2265 40.7517 55.0549 40.9202 55.0118C40.9405 55.0064 43.0234 54.4812 45.8725 54.2379C48.5086 54.0136 52.3647 53.9909 55.7677 55.1587C55.9324 55.2155 56.0197 55.3938 55.9635 55.5582C55.9181 55.6891 55.7941 55.7718 55.6624 55.7705Z" fill="#49413E"/>
<path d="M45.6375 56.2929C45.6319 56.2928 45.627 56.2928 45.6214 56.292C45.4478 56.282 45.3155 56.1333 45.3255 55.9594L45.814 47.6903C45.6188 47.2266 44.6521 44.753 45.5525 43.1586C45.9613 42.4338 46.6826 42.0018 47.6951 41.8752C47.8675 41.8538 48.0254 41.9755 48.0468 42.1483C48.0683 42.3204 47.9463 42.4778 47.7732 42.4992C46.9584 42.6012 46.412 42.9174 46.1014 43.4664C45.2808 44.9176 46.4084 47.4808 46.4201 47.506C46.4407 47.5524 46.45 47.6028 46.4467 47.6523L45.9541 55.9954C45.9448 56.1651 45.8049 56.2945 45.6375 56.2929Z" fill="#49413E"/>
<path d="M51.4225 56.2447C51.4029 56.2445 51.384 56.2423 51.3644 56.2386C51.1939 56.2048 51.0827 56.0396 51.1165 55.8694C51.4292 54.2904 50.5859 47.1707 50.5774 47.0993C50.5723 47.0546 50.5762 47.0092 50.5906 46.966C51.0835 45.4377 51.0631 44.2657 50.5313 43.4822C49.9291 42.5961 48.8598 42.5132 48.8493 42.5124C48.682 42.5011 48.5531 42.3608 48.5554 42.1938L48.8082 26.5306C48.8112 26.3573 48.9533 26.2196 49.1263 26.2213C49.127 26.2213 49.1277 26.2213 49.1284 26.2213C49.302 26.2243 49.4414 26.3668 49.4384 26.5408L49.1903 41.9301C49.639 42.0239 50.4928 42.3052 51.053 43.1287C51.6911 44.0676 51.7442 45.4013 51.2113 47.0921C51.3033 47.8762 52.053 54.383 51.7352 55.9906C51.7043 56.1419 51.571 56.2461 51.4225 56.2447Z" fill="#49413E"/>
<path d="M46.3858 42.6959C46.243 42.6945 46.115 42.5962 46.0821 42.4512L42.5119 26.855C42.4729 26.6856 42.5795 26.5175 42.7487 26.4786C42.9185 26.4404 43.087 26.5461 43.126 26.7148L46.6962 42.3111C46.7352 42.4805 46.6286 42.6486 46.4594 42.6875C46.4348 42.6936 46.4103 42.6961 46.3858 42.6959Z" fill="#49413E"/>
<path d="M50.5163 42.9413C50.4924 42.941 50.468 42.938 50.4435 42.9322C50.2744 42.8907 50.171 42.72 50.2132 42.5513C50.3494 41.9992 53.5749 29.0013 55.1593 26.6274C55.2559 26.483 55.4516 26.4436 55.5964 26.54C55.7411 26.6364 55.7806 26.8317 55.684 26.9762C54.16 29.2598 50.8588 42.5679 50.8253 42.7017C50.7896 42.846 50.6591 42.9426 50.5163 42.9413Z" fill="#49413E"/>
<path d="M48.3909 47.9602C48.3811 47.9601 48.3706 47.96 48.3608 47.9599C47.2286 47.9323 46.4424 46.9494 46.4099 46.9072C46.3026 46.7706 46.3262 46.5731 46.4631 46.4661C46.6 46.3591 46.7973 46.3826 46.9052 46.5185C46.9114 46.5262 47.5462 47.3128 48.3801 47.3312C48.8779 47.3415 49.3629 47.0757 49.8282 46.54C49.9422 46.4091 50.1412 46.3949 50.2725 46.5086C50.4037 46.6224 50.418 46.821 50.304 46.9519C49.717 47.6269 49.0736 47.9667 48.3909 47.9602Z" fill="#49413E"/>
<path d="M46.1205 27.7034C45.5015 27.6975 44.891 27.6016 44.3068 27.3284C44.1492 27.2549 44.0816 27.0677 44.1553 26.9105C44.2289 26.7533 44.4165 26.6859 44.5741 26.7594C45.5955 27.2373 46.7491 27.0763 47.97 26.907C48.9812 26.7664 50.0267 26.6205 51.0393 26.8475C51.1491 26.8723 51.2629 26.8999 51.3789 26.9283C52.2132 27.1326 52.8263 27.2467 53.1221 26.8478C53.2257 26.7083 53.4227 26.6787 53.5625 26.7821C53.7023 26.8854 53.732 27.082 53.6284 27.2215C53.0601 27.9882 52.0442 27.7396 51.2281 27.5389C51.1164 27.5113 51.0067 27.4844 50.9011 27.4611C49.9996 27.2589 49.0123 27.397 48.0565 27.5297C47.4162 27.6186 46.7641 27.7095 46.1205 27.7034Z" fill="#49413E"/>
<path d="M92.834 5.81029C92.8277 5.98177 92.773 6.14303 92.679 6.28035C92.6062 6.38466 92.5081 6.47678 92.3908 6.54287L82.4581 12.2521C82.0298 12.4983 81.4749 12.357 81.2231 11.9368C80.9714 11.5167 81.1147 10.973 81.543 10.7269L91.4757 5.01762C91.775 4.84557 92.1564 4.85949 92.4424 5.05007C92.6975 5.22264 92.8451 5.50669 92.834 5.81029Z" fill="#FBC233"/>
<path d="M91.6661 33.344C91.5577 33.4771 91.4169 33.5728 91.2591 33.6256C91.1381 33.665 91.0043 33.6793 90.8709 33.6614L79.5042 32.2283C79.0141 32.1665 78.6566 31.7193 78.709 31.2323C78.7614 30.7453 79.2035 30.398 79.6936 30.4598L91.0603 31.8928C91.4028 31.9359 91.6987 32.177 91.812 32.5014C91.9115 32.7929 91.858 33.1085 91.6661 33.344Z" fill="#FBC233"/>
<path d="M85.3332 57.5552C85.182 57.6364 85.0152 57.6707 84.8492 57.659C84.7224 57.6489 84.5934 57.6108 84.477 57.543L74.5305 51.8578C74.1016 51.6127 73.9431 51.0625 74.1784 50.6329C74.4137 50.2033 74.9553 50.0522 75.3841 50.2973L85.3307 55.9825C85.6303 56.1538 85.8111 56.49 85.7912 56.8331C85.7712 57.1403 85.6007 57.4113 85.3332 57.5552Z" fill="#FBC233"/>
<path d="M89.9573 28.9919C89.9446 29.0075 89.9319 29.0231 89.9169 29.0369C89.7976 29.1695 89.6459 29.2683 89.477 29.3235C89.3281 29.3726 89.1751 29.3852 89.0191 29.3693L77.4597 27.9481C77.1802 27.9132 76.9282 27.7709 76.7519 27.5495C76.5755 27.328 76.4962 27.0521 76.5254 26.772C76.5568 26.4937 76.6963 26.2441 76.9161 26.071C77.1359 25.898 77.4116 25.8223 77.6928 25.8549L89.25 27.2743C89.6548 27.326 90.0019 27.605 90.1344 27.9909C90.2502 28.3373 90.1837 28.7094 89.9573 28.9919Z" fill="#49413E"/>
<path d="M88.847 3.36907C88.8462 3.38918 88.8455 3.40928 88.8419 3.42927C88.8266 3.607 88.7651 3.77729 88.6636 3.92312C88.5744 4.05215 88.46 4.15437 88.326 4.23575L78.2465 10.0706C78.0025 10.2113 77.7157 10.2497 77.4415 10.1793C77.1673 10.1089 76.9376 9.93663 76.792 9.69552C76.6493 9.45452 76.6102 9.17128 76.6812 8.90069C76.7523 8.6301 76.9266 8.40354 77.1707 8.26004L87.2472 2.42503C87.6012 2.22228 88.0464 2.23564 88.3848 2.46365C88.686 2.67018 88.8573 3.00713 88.847 3.36907Z" fill="#49413E"/>
<path d="M85.4254 52.881C85.4076 52.8905 85.3899 52.9 85.3708 52.907C85.2098 52.9837 85.0317 53.0166 84.8546 53.0028C84.6982 52.991 84.5522 52.944 84.4142 52.8694L74.2851 47.1212C74.0404 46.9817 73.8623 46.7536 73.7845 46.4814C73.7066 46.2093 73.7392 45.924 73.8737 45.6765C74.0095 45.4316 74.2341 45.2546 74.5035 45.1792C74.7729 45.1037 75.0565 45.1396 75.3037 45.2777L85.4314 51.0234C85.7853 51.2264 85.9988 51.6173 85.973 52.0245C85.9471 52.3889 85.7429 52.7069 85.4254 52.881Z" fill="#49413E"/>
<path d="M1.38621 3.99699C1.38566 4.16858 1.43392 4.33188 1.52244 4.47282C1.59098 4.57993 1.68539 4.67587 1.79996 4.74657L11.4985 10.8453C11.9167 11.1082 12.4767 10.9891 12.7449 10.5792C13.0132 10.1694 12.8915 9.62046 12.4733 9.35751L2.77481 3.25881C2.48266 3.07503 2.10094 3.07381 1.80762 3.2529C1.54592 3.41521 1.38718 3.69319 1.38621 3.99699Z" fill="#FBC233"/>
<path d="M1.46137 31.5544C1.56438 31.6916 1.70134 31.7928 1.85693 31.8519C1.97619 31.896 2.10935 31.9157 2.24338 31.903L13.658 30.9219C14.1501 30.8796 14.5251 30.4469 14.4921 29.9582C14.459 29.4695 14.031 29.1049 13.5388 29.1472L2.12424 30.1283C1.78035 30.1578 1.47507 30.3869 1.34901 30.7067C1.23807 30.9939 1.279 31.3114 1.46137 31.5544Z" fill="#FBC233"/>
<path d="M6.8292 55.9984C6.97699 56.0856 7.1423 56.1265 7.30864 56.1213C7.43571 56.1163 7.56621 56.0833 7.68512 56.0202L17.8493 50.734C18.2876 50.506 18.4678 49.9626 18.2497 49.524C18.0317 49.0854 17.4965 48.9129 17.0583 49.1409L6.89407 54.4271C6.58783 54.5863 6.39385 54.9151 6.40014 55.2587C6.40793 55.5665 6.56756 55.844 6.8292 55.9984Z" fill="#FBC233"/>
<path d="M3.34214 27.2735C3.35422 27.2896 3.36629 27.3057 3.3807 27.3201C3.49464 27.4573 3.64238 27.562 3.80891 27.6238C3.95579 27.6789 4.10809 27.6975 4.26461 27.6878L15.8713 26.7262C16.152 26.7024 16.4095 26.5702 16.5944 26.356C16.7794 26.1417 16.8696 25.8691 16.8516 25.588C16.8312 25.3087 16.7017 25.0538 16.4889 24.8721C16.2762 24.6905 16.0037 24.6039 15.7214 24.6254L4.11696 25.5853C3.71052 25.6209 3.35257 25.886 3.20489 26.2663C3.07541 26.6078 3.12711 26.9822 3.34214 27.2735Z" fill="#49413E"/>
<path d="M5.46683 1.71533C5.46677 1.73545 5.46671 1.75556 5.46955 1.77569C5.47771 1.95388 5.53247 2.12648 5.62806 2.27622C5.71206 2.40868 5.82234 2.51536 5.95306 2.60199L15.7931 8.83206C16.0314 8.98226 16.3165 9.03202 16.5932 8.97256C16.87 8.9131 17.1063 8.75006 17.2614 8.51492C17.4135 8.27976 17.4639 7.9983 17.4036 7.72511C17.3434 7.45192 17.1782 7.21862 16.94 7.06555L7.10281 0.835484C6.75707 0.618849 6.31168 0.614545 5.96457 0.828959C5.65536 1.02338 5.47091 1.35326 5.46683 1.71533Z" fill="#49413E"/>
<path d="M6.92239 51.3239C6.93971 51.3342 6.95704 51.3444 6.97584 51.3521C7.13373 51.4351 7.31033 51.4751 7.48785 51.4683C7.6446 51.4628 7.79239 51.4215 7.93321 51.3525L18.2823 46.0105C18.5323 45.8809 18.7194 45.66 18.8079 45.3911C18.8965 45.1223 18.8753 44.836 18.7507 44.5833C18.6247 44.3332 18.4073 44.1475 18.1411 44.0614C17.8749 43.9753 17.5901 43.9999 17.3377 44.1281L6.99003 49.4676C6.62837 49.6564 6.39954 50.0386 6.40912 50.4465C6.4206 50.8115 6.61202 51.1374 6.92239 51.3239Z" fill="#49413E"/>
</svg>
