<svg width="62" height="85" viewBox="0 0 62 85" fill="none" xmlns="http://www.w3.org/2000/svg">
<path d="M46.0395 46.406L33.709 41.8984L48.6463 1L60.9768 5.5075L46.0395 46.406Z" fill="#F2CB53" stroke="#0C213E" stroke-width="1.58084" stroke-miterlimit="10" stroke-linecap="round" stroke-linejoin="round"/>
<path d="M46.9492 5.59033L52.4111 7.5753" stroke="#0C213E" stroke-width="1.58084" stroke-miterlimit="10" stroke-linecap="round" stroke-linejoin="round"/>
<path d="M45.2969 10.1392L50.7587 12.1241" stroke="#0C213E" stroke-width="1.58084" stroke-miterlimit="10" stroke-linecap="round" stroke-linejoin="round"/>
<path d="M43.6406 14.6467L49.1026 16.6317" stroke="#0C213E" stroke-width="1.58084" stroke-miterlimit="10" stroke-linecap="round" stroke-linejoin="round"/>
<path d="M41.9863 19.1956L47.4481 21.1805" stroke="#0C213E" stroke-width="1.58084" stroke-miterlimit="10" stroke-linecap="round" stroke-linejoin="round"/>
<path d="M40.332 23.7031L45.7938 25.6881" stroke="#0C213E" stroke-width="1.58084" stroke-miterlimit="10" stroke-linecap="round" stroke-linejoin="round"/>
<path d="M38.6758 28.252L44.1377 30.237" stroke="#0C213E" stroke-width="1.58084" stroke-miterlimit="10" stroke-linecap="round" stroke-linejoin="round"/>
<path d="M37.0625 32.8008L42.4829 34.7444" stroke="#0C213E" stroke-width="1.58084" stroke-miterlimit="10" stroke-linecap="round" stroke-linejoin="round"/>
<path d="M35.4062 37.3083L40.8268 39.2933" stroke="#0C213E" stroke-width="1.58084" stroke-miterlimit="10" stroke-linecap="round" stroke-linejoin="round"/>
<path d="M18.8555 51.6167C19.5175 53.767 21.7104 55.0077 23.738 54.4287C25.8068 53.8498 26.9654 51.658 26.4275 49.4663L18.8555 51.6167Z" fill="#E25178" stroke="#0C213E" stroke-width="1.58084" stroke-miterlimit="10" stroke-linecap="round" stroke-linejoin="round"/>
<path d="M7.72617 15.1018C7.64341 14.771 7.80892 14.4815 8.13994 14.3574L16.0017 12.1243C16.3327 12.0416 16.6637 12.2071 16.7465 12.5379L27.0081 48.722C27.0909 49.0529 26.9254 49.3837 26.5944 49.4664L18.7326 51.6995C18.4016 51.7822 18.0706 51.6168 17.9878 51.2859L7.72617 15.1018Z" fill="#F2CB53" stroke="#0C213E" stroke-width="1.58084" stroke-miterlimit="10" stroke-linecap="round" stroke-linejoin="round"/>
<path d="M16.4974 12.0002L10.0011 5.87988L7.64258 14.4814L16.4974 12.0002Z" fill="#F2CB53" stroke="#0C213E" stroke-width="1.58084" stroke-miterlimit="10" stroke-linecap="round" stroke-linejoin="round"/>
<path d="M36.3581 35.1994V18.534C36.3581 15.3498 33.7927 12.7859 30.6066 12.7859C27.4619 12.7859 24.8965 15.3498 24.8965 18.534V35.1994H36.3581Z" fill="#F2CB53" stroke="#0C213E" stroke-width="1.58084" stroke-miterlimit="10" stroke-linecap="round" stroke-linejoin="round"/>
<path d="M36.3581 19.1542H24.8965V31.2708H36.3581V19.1542Z" fill="#F2CB53" stroke="#0C213E" stroke-width="1.58084" stroke-miterlimit="10" stroke-linecap="round" stroke-linejoin="round"/>
<path d="M6.44163 35.6541C5.40719 38.9623 3.50374 44.3383 1.39348 47.1503C-0.220245 49.3007 3.42103 49.6315 7.02088 49.6315C10.5794 49.6315 9.1725 54.6766 8.34494 58.6879C7.18637 64.2706 8.30355 69.5225 20.841 69.5225C20.841 69.5225 24.7305 73.1202 24.7305 83.5412H45.5021C45.5021 83.5412 44.0952 75.6427 48.9777 70.5149C54.2327 65.0149 60.5635 63.1127 57.212 27.8796H7.7657C7.7657 27.921 7.55883 32.015 6.44163 35.6541Z" fill="#F2CB53" stroke="#0C213E" stroke-width="1.58084" stroke-miterlimit="10" stroke-linecap="round" stroke-linejoin="round"/>
<path d="M52.7012 54.7591V44.793" stroke="white" stroke-width="1.58084" stroke-miterlimit="10" stroke-linecap="round" stroke-linejoin="round"/>
<path d="M54.3153 40.7817C54.3153 41.6502 53.6118 42.3945 52.7015 42.3945C51.8326 42.3945 51.0879 41.6915 51.0879 40.7817C51.0879 39.9133 51.7912 39.1689 52.7015 39.1689C53.6118 39.1689 54.3153 39.9133 54.3153 40.7817Z" fill="white"/>
</svg>
