<svg width="62" height="58" viewBox="0 0 62 58" fill="none" xmlns="http://www.w3.org/2000/svg">
<path d="M2.67578 34.5188C2.67578 34.5188 12.7485 13.5636 16.5367 3.73161C16.801 3.05658 17.6233 2 18.8567 2C19.9432 2 21.2354 2.67504 21.2354 5.05232" stroke="#0C213E" stroke-width="2.19472" stroke-miterlimit="10" stroke-linecap="round" stroke-linejoin="round"/>
<path d="M60.2041 34.5188C60.2041 34.5188 50.1314 13.5636 46.3432 3.73161C46.0789 3.05658 45.2566 2 44.0232 2C42.9366 2 41.6445 2.67504 41.6445 5.05232" stroke="#0C213E" stroke-width="2.19472" stroke-miterlimit="10" stroke-linecap="round" stroke-linejoin="round"/>
<path d="M26.6678 46.8453C26.6678 52.0401 20.8238 56.237 14.9505 56.237C6.66922 56.237 2 52.0401 2 46.8453V37.1601C2 31.9653 5.55329 30.4685 9.95825 30.4685H18.6801C23.0851 30.4685 26.6384 31.9946 26.6384 37.1601V46.8453H26.6678Z" fill="#F2CB53" stroke="#0C213E" stroke-width="2.19472" stroke-miterlimit="10" stroke-linecap="round" stroke-linejoin="round"/>
<path d="M23.0569 45.8182C23.0569 49.4868 18.9455 52.4511 14.8048 52.4511C8.96089 52.4511 5.67188 49.4868 5.67188 45.8182V38.9798C5.67188 35.3405 8.19736 34.2546 11.2808 34.2546H17.4185C20.5313 34.2546 23.0275 35.3405 23.0275 38.9798V45.8182H23.0569Z" fill="#F2CB53" stroke="#0C213E" stroke-width="2.19472" stroke-miterlimit="10" stroke-linecap="round" stroke-linejoin="round"/>
<path d="M9.60547 45.5245L14.304 41.5918" stroke="white" stroke-width="2.19472" stroke-miterlimit="10" stroke-linecap="round" stroke-linejoin="round"/>
<path d="M18.063 40.2128C17.4755 40.7119 16.6236 40.6238 16.1243 40.0367C15.6249 39.4496 15.7131 38.5982 16.3005 38.0992C16.888 37.6001 17.7399 37.6882 18.2393 38.2753C18.7386 38.8624 18.6505 39.7431 18.063 40.2128Z" fill="white"/>
<path d="M14.5664 45.9655C15.8589 44.7619 18.2382 42.5015 18.2382 42.5015" stroke="white" stroke-width="2.19472" stroke-miterlimit="10" stroke-linecap="round" stroke-linejoin="round"/>
<path d="M60.7615 46.8453C60.7615 52.0401 54.9176 56.237 49.0444 56.237C40.763 56.237 36.0938 52.0401 36.0938 46.8453V37.1601C36.0938 31.9653 39.6471 30.4685 44.0521 30.4685H52.7739C57.1788 30.4685 60.7322 31.9946 60.7322 37.1601V46.8453H60.7615Z" fill="#F2CB53" stroke="#0C213E" stroke-width="2.19472" stroke-miterlimit="10" stroke-linecap="round" stroke-linejoin="round"/>
<path d="M57.1506 45.8179C57.1506 49.4866 53.0393 52.4509 48.8986 52.4509C43.0547 52.4509 39.7656 49.4866 39.7656 45.8179V38.9796C39.7656 35.3403 42.2912 34.2544 45.3746 34.2544H51.5122C54.625 34.2544 57.1212 35.3403 57.1212 38.9796V45.8179H57.1506Z" fill="#F2CB53" stroke="#0C213E" stroke-width="2.19472" stroke-miterlimit="10" stroke-linecap="round" stroke-linejoin="round"/>
<path d="M43.6992 45.5245L48.3977 41.5918" stroke="white" stroke-width="2.19472" stroke-miterlimit="10" stroke-linecap="round" stroke-linejoin="round"/>
<path d="M52.1567 40.2131C51.5692 40.7121 50.7174 40.6241 50.218 40.037C49.7187 39.4498 49.8068 38.5985 50.3943 38.0994C50.9818 37.6004 51.8335 37.6884 52.3329 38.2756C52.8322 38.8627 52.7442 39.7434 52.1567 40.2131Z" fill="white"/>
<path d="M48.6641 45.9658C49.9565 44.7622 52.3358 42.5017 52.3358 42.5017" stroke="white" stroke-width="2.19472" stroke-miterlimit="10" stroke-linecap="round" stroke-linejoin="round"/>
<path d="M25.5215 32.9925C25.5215 32.9925 30.0146 29.9403 37.4444 32.8164" stroke="#0C213E" stroke-width="2.19472" stroke-miterlimit="10" stroke-linecap="round" stroke-linejoin="round"/>
</svg>
