<svg width="23" height="23" viewBox="0 0 23 23" fill="none" xmlns="http://www.w3.org/2000/svg">
<path d="M18.8895 3.22328L2.14913 7.94493C2.00829 7.98465 1.88294 8.06641 1.78982 8.17928C1.6967 8.29215 1.64024 8.43076 1.62801 8.57658C1.61577 8.72239 1.64833 8.86847 1.72133 8.99528C1.79434 9.1221 1.90431 9.22361 2.03655 9.28625L9.72815 12.9296C9.87817 13.0007 9.99896 13.1215 10.07 13.2715L13.7134 20.9631C13.7761 21.0953 13.8776 21.2053 14.0044 21.2783C14.1312 21.3513 14.2773 21.3839 14.4231 21.3717C14.5689 21.3594 14.7075 21.303 14.8204 21.2098C14.9332 21.1167 15.015 20.9914 15.0547 20.8505L19.7764 4.11015C19.8111 3.98718 19.8123 3.85719 19.7801 3.73357C19.7478 3.60994 19.6832 3.49715 19.5929 3.40681C19.5025 3.31646 19.3897 3.25183 19.2661 3.21958C19.1425 3.18732 19.0125 3.1886 18.8895 3.22328Z" stroke="#C4C4C4" stroke-width="1.5" stroke-linecap="round" stroke-linejoin="round"/>
<path d="M9.96045 13.0395L14.0263 8.97363" stroke="#C4C4C4" stroke-width="1.5" stroke-linecap="round" stroke-linejoin="round"/>
</svg>
