<svg width="64" height="65" viewBox="0 0 64 65" fill="none" xmlns="http://www.w3.org/2000/svg">
<path d="M61.6824 48.4103H57.5725V43.8536H47.7474V48.4103H43.6055C42.8991 48.4103 42.2891 48.9879 42.2891 49.6939V62.0482C42.2891 62.7863 42.867 63.3639 43.6055 63.3639H61.6824C62.3887 63.3639 62.9988 62.7863 62.9988 62.0482V49.6939C62.9988 48.9879 62.4208 48.4103 61.6824 48.4103Z" fill="#F2CB53" stroke="#0C213E" stroke-width="1.49019" stroke-miterlimit="10" stroke-linecap="round" stroke-linejoin="round"/>
<path d="M46.1758 59.8018V55.5018" stroke="white" stroke-width="1.49019" stroke-miterlimit="10" stroke-linecap="round" stroke-linejoin="round"/>
<path d="M47.3313 52.5818C47.3313 53.2236 46.8176 53.7371 46.1754 53.7371C45.5333 53.7371 45.0195 53.2236 45.0195 52.5818C45.0195 51.9401 45.5333 51.4266 46.1754 51.4266C46.8176 51.4266 47.3313 51.9401 47.3313 52.5818Z" fill="white"/>
<path d="M59.3375 43.9821C59.3375 44.7523 58.7274 45.362 57.9568 45.362H47.3611C46.5905 45.362 45.9805 44.7523 45.9805 43.9821V39.8747C45.9805 39.1046 46.5905 38.4949 47.3611 38.4949H57.9568C58.7274 38.4949 59.3375 39.1046 59.3375 39.8747V43.9821Z" fill="#F2CB53" stroke="#0C213E" stroke-width="1.49019" stroke-miterlimit="10" stroke-linecap="round" stroke-linejoin="round"/>
<path d="M35.4841 60.2512C32.5944 60.2512 32.5944 61.7594 29.7368 61.7594C26.8791 61.7594 26.8791 60.2512 23.9894 60.2512C21.1318 60.2512 21.1318 61.7594 18.2421 61.7594C15.3523 61.7594 15.3523 60.2512 12.4947 60.2512C9.60497 60.2512 9.60498 61.7594 6.74736 61.7594C3.85763 61.7594 3.85762 60.2512 1 60.2512" stroke="#0C213E" stroke-width="1.49019" stroke-miterlimit="10" stroke-linecap="round" stroke-linejoin="round"/>
<path d="M31.5977 46.485C31.5977 46.485 25.6899 44.7522 25.433 43.2761C25.1761 41.7679 39.3358 42.4738 43.9594 30.0553C43.9594 30.0553 35.8681 30.6329 34.8086 28.868C34.8086 28.868 49.6425 5.79588 43.8309 1.5601C38.0194 -2.67567 20.5847 18.5032 20.5847 18.5032C18.5939 18.0219 16.6675 10.1279 16.6675 10.1279C6.26442 18.3428 11.2412 31.5956 9.73211 31.7881C8.22302 31.9807 4.78745 26.8785 4.78745 26.8785C-2.59743 40.003 8.8973 49.4051 8.8973 49.4051C8.8973 49.4051 21.7405 56.8498 31.5977 46.485Z" fill="#F2CB53" stroke="#0C213E" stroke-width="1.49019" stroke-miterlimit="10" stroke-linecap="round" stroke-linejoin="round"/>
<path d="M35.0025 13.6577L1 60.2512" stroke="#0C213E" stroke-width="1.49019" stroke-miterlimit="10" stroke-linecap="round" stroke-linejoin="round"/>
<path d="M14.7434 27.841C14.7434 27.841 13.748 23.3485 15.6745 19.0486" stroke="white" stroke-width="1.49019" stroke-miterlimit="10" stroke-linecap="round" stroke-linejoin="round"/>
<path d="M16.8942 32.9753C16.3163 33.7776 15.1925 33.938 14.4219 33.3604C13.6192 32.7828 13.4587 31.6597 14.0366 30.8895C14.6146 30.0873 15.7383 29.9268 16.5089 30.5045C17.2795 31.0821 17.4722 32.1731 16.8942 32.9753Z" fill="white"/>
</svg>
