<svg width="74" height="55" viewBox="0 0 74 55" fill="none" xmlns="http://www.w3.org/2000/svg">
<path d="M63.9282 37.9828C63.9282 38.932 63.1611 39.6986 62.2113 39.6986H12.3849C11.4351 39.6986 10.668 38.932 10.668 37.9828V2.71587C10.668 1.76665 11.4351 1 12.3849 1H62.2113C63.1611 1 63.9282 1.76665 63.9282 2.71587V37.9828Z" fill="#F2CB53" stroke="#0C213E" stroke-width="1.20647" stroke-miterlimit="10" stroke-linecap="round" stroke-linejoin="round"/>
<path d="M57.9975 4.86719H16.6094V35.8261H57.9975V4.86719Z" fill="white" stroke="#0C213E" stroke-width="1.1849" stroke-miterlimit="10" stroke-linecap="round" stroke-linejoin="round"/>
<path d="M10.79 39.6982L1 49.665H72.9635L63.9041 39.6982H10.79Z" fill="#F2CB53" stroke="#0C213E" stroke-width="1.20647" stroke-miterlimit="10" stroke-linecap="round" stroke-linejoin="round"/>
<path d="M1 49.665V52.2206C1 53.2063 1.76711 54.0095 2.68036 54.0095H71.3196C72.2329 54.0095 73 53.2063 73 52.2206V49.665H1Z" fill="#F2CB53" stroke="#0C213E" stroke-width="1.20647" stroke-miterlimit="10" stroke-linecap="round" stroke-linejoin="round"/>
<path d="M13.107 42.4404L9.01562 46.9674H64.9791L61.3627 42.4404H13.107Z" fill="white" stroke="#0C213E" stroke-width="1.20647" stroke-miterlimit="10" stroke-linecap="round" stroke-linejoin="round"/>
<path d="M37.281 32.3599C37.281 32.3599 34.1395 30.8265 29.7559 30.8265C25.0801 30.8265 21.3906 32.3599 21.3906 32.3599V10.2725C21.3906 10.2725 24.2034 8.37402 29.3541 8.37402C34.9431 8.37402 37.3176 10.2725 37.3176 10.2725V32.3599H37.281Z" fill="#F2CB53" stroke="#0C213E" stroke-width="1.20647" stroke-miterlimit="10" stroke-linecap="round" stroke-linejoin="round"/>
<path d="M23.8867 12.8301C24.7634 12.8301 24.7634 13.3412 25.6767 13.3412C26.5534 13.3412 26.5534 12.8301 27.4666 12.8301C28.3433 12.8301 28.3433 13.3412 29.2566 13.3412C30.1333 13.3412 30.1333 12.8301 31.0465 12.8301C31.9598 12.8301 31.9232 13.3412 32.8365 13.3412C33.7132 13.3412 33.7132 12.8301 34.6264 12.8301" stroke="#0C213E" stroke-width="1.20647" stroke-miterlimit="10" stroke-linecap="round" stroke-linejoin="round"/>
<path d="M23.8867 16.4424C24.7634 16.4424 24.7634 16.9535 25.6767 16.9535C26.5534 16.9535 26.5534 16.4424 27.4666 16.4424C28.3433 16.4424 28.3433 16.9535 29.2566 16.9535C30.1333 16.9535 30.1333 16.4424 31.0465 16.4424C31.9598 16.4424 31.9232 16.9535 32.8365 16.9535C33.7132 16.9535 33.7132 16.4424 34.6264 16.4424" stroke="#0C213E" stroke-width="1.20647" stroke-miterlimit="10" stroke-linecap="round" stroke-linejoin="round"/>
<path d="M23.8867 20.0195C24.7634 20.0195 24.7634 20.5307 25.6767 20.5307C26.5534 20.5307 26.5534 20.0195 27.4666 20.0195C28.3433 20.0195 28.3433 20.5307 29.2566 20.5307C30.1333 20.5307 30.1333 20.0195 31.0465 20.0195C31.9598 20.0195 31.9232 20.5307 32.8365 20.5307C33.7132 20.5307 33.7132 20.0195 34.6264 20.0195" stroke="#0C213E" stroke-width="1.20647" stroke-miterlimit="10" stroke-linecap="round" stroke-linejoin="round"/>
<path d="M23.8867 23.6406C24.7634 23.6406 24.7634 24.1517 25.6767 24.1517C26.5534 24.1517 26.5534 23.6406 27.4666 23.6406C28.3433 23.6406 28.3433 24.1517 29.2566 24.1517C30.1333 24.1517 30.1333 23.6406 31.0465 23.6406C31.9598 23.6406 31.9232 24.1517 32.8365 24.1517C33.7132 24.1517 33.7132 23.6406 34.6264 23.6406" stroke="#0C213E" stroke-width="1.20647" stroke-miterlimit="10" stroke-linecap="round" stroke-linejoin="round"/>
<path d="M23.8867 27.2529C24.7634 27.2529 24.7634 27.7641 25.6767 27.7641C26.5534 27.7641 26.5534 27.2529 27.4666 27.2529C28.3433 27.2529 28.3433 27.7641 29.2566 27.7641C30.1333 27.7641 30.1333 27.2529 31.0465 27.2529C31.9598 27.2529 31.9232 27.7641 32.8365 27.7641C33.7132 27.7641 33.7132 27.2529 34.6264 27.2529" stroke="#0C213E" stroke-width="1.20647" stroke-miterlimit="10" stroke-linecap="round" stroke-linejoin="round"/>
<path d="M37.2826 32.3599C37.2826 32.3599 40.4242 30.8265 44.8077 30.8265C49.4835 30.8265 53.173 32.3599 53.173 32.3599V10.2725C53.173 10.2725 50.3603 8.37402 45.2096 8.37402C39.657 8.37402 37.2461 10.2725 37.2461 10.2725V32.3599H37.2826Z" fill="#F2CB53" stroke="#0C213E" stroke-width="1.20647" stroke-miterlimit="10" stroke-linecap="round" stroke-linejoin="round"/>
<path d="M50.6928 12.8301C49.8161 12.8301 49.8161 13.3412 48.9029 13.3412C48.0262 13.3412 48.0262 12.8301 47.1129 12.8301C46.2362 12.8301 46.2362 13.3412 45.323 13.3412C44.4463 13.3412 44.4463 12.8301 43.533 12.8301C42.6563 12.8301 42.6563 13.3412 41.7431 13.3412C40.8298 13.3412 40.8664 12.8301 39.9531 12.8301" stroke="#0C213E" stroke-width="1.20647" stroke-miterlimit="10" stroke-linecap="round" stroke-linejoin="round"/>
<path d="M50.6928 16.4424C49.8161 16.4424 49.8161 16.9535 48.9029 16.9535C48.0262 16.9535 48.0262 16.4424 47.1129 16.4424C46.2362 16.4424 46.2362 16.9535 45.323 16.9535C44.4463 16.9535 44.4463 16.4424 43.533 16.4424C42.6563 16.4424 42.6563 16.9535 41.7431 16.9535C40.8298 16.9535 40.8664 16.4424 39.9531 16.4424" stroke="#0C213E" stroke-width="1.20647" stroke-miterlimit="10" stroke-linecap="round" stroke-linejoin="round"/>
<path d="M50.6928 20.0195C49.8161 20.0195 49.8161 20.5307 48.9029 20.5307C48.0262 20.5307 48.0262 20.0195 47.1129 20.0195C46.2362 20.0195 46.2362 20.5307 45.323 20.5307C44.4463 20.5307 44.4463 20.0195 43.533 20.0195C42.6563 20.0195 42.6563 20.5307 41.7431 20.5307C40.8298 20.5307 40.8664 20.0195 39.9531 20.0195" stroke="#0C213E" stroke-width="1.20647" stroke-miterlimit="10" stroke-linecap="round" stroke-linejoin="round"/>
<path d="M50.6928 23.6406C49.8161 23.6406 49.8161 24.1517 48.9029 24.1517C48.0262 24.1517 48.0262 23.6406 47.1129 23.6406C46.2362 23.6406 46.2362 24.1517 45.323 24.1517C44.4463 24.1517 44.4463 23.6406 43.533 23.6406C42.6563 23.6406 42.6563 24.1517 41.7431 24.1517C40.8298 24.1517 40.8664 23.6406 39.9531 23.6406" stroke="#0C213E" stroke-width="1.20647" stroke-miterlimit="10" stroke-linecap="round" stroke-linejoin="round"/>
<path d="M50.6928 27.2529C49.8161 27.2529 49.8161 27.7641 48.9029 27.7641C48.0262 27.7641 48.0262 27.2529 47.1129 27.2529C46.2362 27.2529 46.2362 27.7641 45.323 27.7641C44.4463 27.7641 44.4463 27.2529 43.533 27.2529C42.6563 27.2529 42.6563 27.7641 41.7431 27.7641C40.8298 27.7641 40.8664 27.2529 39.9531 27.2529" stroke="#0C213E" stroke-width="1.20647" stroke-miterlimit="10" stroke-linecap="round" stroke-linejoin="round"/>
<path d="M60.9414 34.1827V26.9541" stroke="white" stroke-width="1.20647" stroke-miterlimit="10" stroke-linecap="round" stroke-linejoin="round"/>
<path d="M61.9296 24.2572C61.9296 24.8048 61.4913 25.2429 60.9433 25.2429C60.3954 25.2429 59.957 24.8048 59.957 24.2572C59.957 23.7096 60.3954 23.2715 60.9433 23.2715C61.4913 23.2715 61.9296 23.7096 61.9296 24.2572Z" fill="white"/>
</svg>
