<svg width="16" height="16" viewBox="0 0 16 16" fill="none" xmlns="http://www.w3.org/2000/svg">
<path d="M13.3335 2.66699H2.66683C1.9335 2.66699 1.34016 3.26699 1.34016 4.00033L1.3335 12.0003C1.3335 12.7337 1.9335 13.3337 2.66683 13.3337H13.3335C14.0668 13.3337 14.6668 12.7337 14.6668 12.0003V4.00033C14.6668 3.26699 14.0668 2.66699 13.3335 2.66699ZM13.0668 5.50033L8.3535 8.44699C8.14016 8.58033 7.86016 8.58033 7.64683 8.44699L2.9335 5.50033C2.76683 5.39366 2.66683 5.21366 2.66683 5.02033C2.66683 4.57366 3.1535 4.30699 3.5335 4.54033L8.00016 7.33366L12.4668 4.54033C12.8468 4.30699 13.3335 4.57366 13.3335 5.02033C13.3335 5.21366 13.2335 5.39366 13.0668 5.50033Z" fill="#49413E"/>
</svg>
