<svg width="67" height="73" viewBox="0 0 67 73" fill="none" xmlns="http://www.w3.org/2000/svg">
<path d="M51.1062 30.3912C51.1062 20.4349 43.045 12.3433 33.0477 12.3433C23.0856 12.3433 15.0244 20.3998 15.0244 30.3912C15.0244 34.6833 17.2421 38.1311 19.0374 41.6844C21.0791 45.8005 25.4441 53.9626 25.6201 57.7621C25.7961 61.5617 39.1376 63.3208 40.5457 57.7621C41.9186 52.2035 44.8051 45.3432 47.1284 41.6844C49.2405 38.3421 51.1062 34.6481 51.1062 30.3912Z" fill="#F2CB53" stroke="#0C213E" stroke-width="2.63017" stroke-miterlimit="10" stroke-linecap="round" stroke-linejoin="round"/>
<path d="M40.5808 57.7621H25.6199V64.165H40.5808V57.7621Z" fill="#F2CB53" stroke="#0C213E" stroke-width="2.63017" stroke-miterlimit="10" stroke-linecap="round" stroke-linejoin="round"/>
<path d="M25.6199 64.165V67.3314C25.6199 69.4071 27.6264 71.0957 30.1258 71.0957H36.0398C38.5391 71.0957 40.5457 69.4071 40.5457 67.3314V64.165H25.6199Z" fill="#F2CB53" stroke="#0C213E" stroke-width="2.63017" stroke-miterlimit="10" stroke-linecap="round" stroke-linejoin="round"/>
<path d="M30.6535 57.7621C30.6535 57.7621 30.3015 41.8954 26.1477 32.0095" stroke="#0C213E" stroke-width="2.63017" stroke-miterlimit="10" stroke-linecap="round" stroke-linejoin="round"/>
<path d="M36.0396 57.7621C36.0396 57.7621 36.3916 41.8954 40.5456 32.0095" stroke="#0C213E" stroke-width="2.63017" stroke-miterlimit="10" stroke-linecap="round" stroke-linejoin="round"/>
<path d="M39.4897 17.4796C39.4897 17.4796 43.89 19.2035 46.2485 25.0787" stroke="white" stroke-width="2.63017" stroke-miterlimit="10" stroke-linecap="round" stroke-linejoin="round"/>
<path d="M48.5365 28.0691C48.5365 28.7728 47.9732 29.3357 47.2692 29.3357C46.5651 29.3357 46.0371 28.7728 46.0371 28.0691C46.0371 27.4007 46.6003 26.8026 47.2692 26.8026C47.9732 26.8378 48.5365 27.4007 48.5365 28.0691Z" fill="white"/>
<path d="M20.6213 12.1674L17.2068 6.46802" stroke="#0C213E" stroke-width="2.63017" stroke-miterlimit="10" stroke-linecap="round" stroke-linejoin="round"/>
<path d="M49.4874 60.1543L46.073 54.455" stroke="#0C213E" stroke-width="2.63017" stroke-miterlimit="10" stroke-linecap="round" stroke-linejoin="round"/>
<path d="M12.1376 20.7164L6.3999 17.339" stroke="#0C213E" stroke-width="2.63017" stroke-miterlimit="10" stroke-linecap="round" stroke-linejoin="round"/>
<path d="M47.2698 13.2932L50.7197 7.59387" stroke="#0C213E" stroke-width="2.63017" stroke-miterlimit="10" stroke-linecap="round" stroke-linejoin="round"/>
<path d="M55.7878 21.8422L61.4906 18.4648" stroke="#0C213E" stroke-width="2.63017" stroke-miterlimit="10" stroke-linecap="round" stroke-linejoin="round"/>
<path d="M60.2946 49.2834L54.5566 45.906" stroke="#0C213E" stroke-width="2.63017" stroke-miterlimit="10" stroke-linecap="round" stroke-linejoin="round"/>
<path d="M15.7996 59.2046L19.2493 53.5052" stroke="#0C213E" stroke-width="2.63017" stroke-miterlimit="10" stroke-linecap="round" stroke-linejoin="round"/>
<path d="M4.99146 48.3686L10.7294 44.9561" stroke="#0C213E" stroke-width="2.63017" stroke-miterlimit="10" stroke-linecap="round" stroke-linejoin="round"/>
<path d="M8.65301 33.3113H2" stroke="#0C213E" stroke-width="2.63017" stroke-miterlimit="10" stroke-linecap="round" stroke-linejoin="round"/>
<path d="M64.6943 33.3113H58.0413" stroke="#0C213E" stroke-width="2.63017" stroke-miterlimit="10" stroke-linecap="round" stroke-linejoin="round"/>
<path d="M33.3301 8.64923V2" stroke="#0C213E" stroke-width="2.63017" stroke-miterlimit="10" stroke-linecap="round" stroke-linejoin="round"/>
</svg>
